<svg width="35" height="34" viewBox="0 0 35 34" fill="none" xmlns="http://www.w3.org/2000/svg">
<path fill-rule="evenodd" clip-rule="evenodd" d="M25.7658 0.731051C22.9062 0.193486 19.9987 -0.0515366 17.0887 -0.000138256C14.1785 -0.0515826 11.2707 0.19344 8.41094 0.731051C6.52357 1.12997 4.79354 2.06388 3.43093 3.41939C2.06832 4.77491 1.13175 6.49371 0.73493 8.36709C-0.244977 14.0812 -0.244977 19.9185 0.73493 25.6326C1.13175 27.506 2.06832 29.2248 3.43093 30.5803C4.79354 31.9359 6.52357 32.8698 8.41094 33.2687C11.2698 33.8062 14.1767 34.0512 17.086 33.9999C19.9959 34.0514 22.9035 33.8064 25.763 33.2687C27.6504 32.8698 29.3804 31.9359 30.7431 30.5803C32.1057 29.2248 33.0423 27.506 33.4391 25.6326C34.4193 19.9185 34.4193 14.0812 33.4391 8.36709C33.0424 6.49406 32.1063 4.77551 30.7442 3.42003C29.3821 2.06455 27.6526 1.13043 25.7658 0.731051Z" fill="#1070CA"/>
<path d="M17.2199 26.9239C16.2862 26.7945 15.3634 26.5965 14.4591 26.3317C10.9957 25.0419 8.99975 22.5087 8.76488 18.8676C8.57334 15.8952 8.72631 12.9007 8.72631 9.85645H17.2199V26.9239Z" fill="white"/>
<path d="M27.1776 14.0246C27.1775 14.8594 26.9285 15.6756 26.4618 16.3702C25.9951 17.0649 25.3317 17.607 24.555 17.9284C23.7783 18.2497 22.9231 18.3359 22.0972 18.1761C21.2712 18.0163 20.5114 17.6176 19.9134 17.0303C19.3154 16.4429 18.9059 15.6932 18.7366 14.8755C18.5673 14.0578 18.6457 13.2086 18.9619 12.435C19.2781 11.6614 19.818 10.9979 20.5136 10.528C21.2092 10.0582 22.0294 9.80305 22.8709 9.7947C23.4346 9.78839 23.994 9.89318 24.5166 10.103C25.0392 10.3128 25.5146 10.6235 25.9152 11.017C26.3159 11.4104 26.6337 11.8789 26.8504 12.3952C27.0671 12.9115 27.1783 13.4654 27.1776 14.0246Z" fill="white"/>
</svg>
